<?xml version="1.0" encoding="utf-8" ?>
<svg baseProfile="full" height="160px" version="1.1" width="850px" xmlns="http://www.w3.org/2000/svg" xmlns:ev="http://www.w3.org/2001/xml-events" xmlns:xlink="http://www.w3.org/1999/xlink"><defs /><text fill="#333" font-size="12px" font-weight="bold" x="10" y="25">Color Legend:</text><rect fill="#D81159" height="12" rx="2" width="12" x="110" y="15" /><text fill="#333" font-size="10px" x="127" y="25">0 hrs</text><rect fill="#FFBC42" height="12" rx="2" width="12" x="210" y="15" /><text fill="#333" font-size="10px" x="227" y="25">1-2 hrs</text><rect fill="#D16014" height="12" rx="2" width="12" x="310" y="15" /><text fill="#333" font-size="10px" x="327" y="25">3-4 hrs</text><rect fill="#218380" height="12" rx="2" width="12" x="410" y="15" /><text fill="#333" font-size="10px" x="427" y="25">5+ hrs</text><rect fill="#ebedf0" height="12" rx="2" width="12" x="510" y="15" /><text fill="#333" font-size="10px" x="527" y="25">No Data/Future</text><rect fill="#ebedf0" height="12" rx="2" width="12" x="10" y="93" /><text fill="#666" font-size="10px" x="10" y="35">Jan</text><line stroke="#999999" stroke-width="0.5" x1="8.0" x2="8.0" y1="43" y2="155" /><rect fill="#ebedf0" height="12" rx="2" width="12" x="10" y="109" /><rect fill="#ebedf0" height="12" rx="2" width="12" x="10" y="125" /><rect fill="#ebedf0" height="12" rx="2" width="12" x="10" y="141" /><rect fill="#ebedf0" height="12" rx="2" width="12" x="26" y="45" /><rect fill="#ebedf0" height="12" rx="2" width="12" x="26" y="61" /><rect fill="#ebedf0" height="12" rx="2" width="12" x="26" y="77" /><rect fill="#ebedf0" height="12" rx="2" width="12" x="26" y="93" /><rect fill="#ebedf0" height="12" rx="2" width="12" x="26" y="109" /><rect fill="#ebedf0" height="12" rx="2" width="12" x="26" y="125" /><rect fill="#ebedf0" height="12" rx="2" width="12" x="26" y="141" /><rect fill="#ebedf0" height="12" rx="2" width="12" x="42" y="45" /><rect fill="#ebedf0" height="12" rx="2" width="12" x="42" y="61" /><rect fill="#ebedf0" height="12" rx="2" width="12" x="42" y="77" /><rect fill="#ebedf0" height="12" rx="2" width="12" x="42" y="93" /><rect fill="#ebedf0" height="12" rx="2" width="12" x="42" y="109" /><rect fill="#ebedf0" height="12" rx="2" width="12" x="42" y="125" /><rect fill="#ebedf0" height="12" rx="2" width="12" x="42" y="141" /><rect fill="#ebedf0" height="12" rx="2" width="12" x="58" y="45" /><rect fill="#ebedf0" height="12" rx="2" width="12" x="58" y="61" /><rect fill="#ebedf0" height="12" rx="2" width="12" x="58" y="77" /><rect fill="#ebedf0" height="12" rx="2" width="12" x="58" y="93" /><rect fill="#ebedf0" height="12" rx="2" width="12" x="58" y="109" /><rect fill="#ebedf0" height="12" rx="2" width="12" x="58" y="125" /><rect fill="#ebedf0" height="12" rx="2" width="12" x="58" y="141" /><rect fill="#ebedf0" height="12" rx="2" width="12" x="74" y="45" /><rect fill="#ebedf0" height="12" rx="2" width="12" x="74" y="61" /><rect fill="#ebedf0" height="12" rx="2" width="12" x="74" y="77" /><rect fill="#ebedf0" height="12" rx="2" width="12" x="74" y="93" /><rect fill="#ebedf0" height="12" rx="2" width="12" x="74" y="109" /><rect fill="#ebedf0" height="12" rx="2" width="12" x="74" y="125" /><rect fill="#ebedf0" height="12" rx="2" width="12" x="74" y="141" /><text fill="#666" font-size="10px" x="74" y="35">Feb</text><line stroke="#999999" stroke-width="0.5" x1="72.0" x2="72.0" y1="43" y2="155" /><rect fill="#ebedf0" height="12" rx="2" width="12" x="90" y="45" /><rect fill="#ebedf0" height="12" rx="2" width="12" x="90" y="61" /><rect fill="#ebedf0" height="12" rx="2" width="12" x="90" y="77" /><rect fill="#ebedf0" height="12" rx="2" width="12" x="90" y="93" /><rect fill="#ebedf0" height="12" rx="2" width="12" x="90" y="109" /><rect fill="#ebedf0" height="12" rx="2" width="12" x="90" y="125" /><rect fill="#ebedf0" height="12" rx="2" width="12" x="90" y="141" /><rect fill="#ebedf0" height="12" rx="2" width="12" x="106" y="45" /><rect fill="#ebedf0" height="12" rx="2" width="12" x="106" y="61" /><rect fill="#ebedf0" height="12" rx="2" width="12" x="106" y="77" /><rect fill="#ebedf0" height="12" rx="2" width="12" x="106" y="93" /><rect fill="#ebedf0" height="12" rx="2" width="12" x="106" y="109" /><rect fill="#ebedf0" height="12" rx="2" width="12" x="106" y="125" /><rect fill="#ebedf0" height="12" rx="2" width="12" x="106" y="141" /><rect fill="#ebedf0" height="12" rx="2" width="12" x="122" y="45" /><rect fill="#ebedf0" height="12" rx="2" width="12" x="122" y="61" /><rect fill="#ebedf0" height="12" rx="2" width="12" x="122" y="77" /><rect fill="#ebedf0" height="12" rx="2" width="12" x="122" y="93" /><rect fill="#ebedf0" height="12" rx="2" width="12" x="122" y="109" /><rect fill="#ebedf0" height="12" rx="2" width="12" x="122" y="125" /><rect fill="#ebedf0" height="12" rx="2" width="12" x="122" y="141" /><rect fill="#ebedf0" height="12" rx="2" width="12" x="138" y="45" /><rect fill="#ebedf0" height="12" rx="2" width="12" x="138" y="61" /><rect fill="#ebedf0" height="12" rx="2" width="12" x="138" y="77" /><rect fill="#ebedf0" height="12" rx="2" width="12" x="138" y="93" /><rect fill="#ebedf0" height="12" rx="2" width="12" x="138" y="109" /><rect fill="#ebedf0" height="12" rx="2" width="12" x="138" y="125" /><rect fill="#ebedf0" height="12" rx="2" width="12" x="138" y="141" /><text fill="#666" font-size="10px" x="138" y="35">Mar</text><line stroke="#999999" stroke-width="0.5" x1="136.0" x2="136.0" y1="43" y2="155" /><rect fill="#ebedf0" height="12" rx="2" width="12" x="154" y="45" /><rect fill="#ebedf0" height="12" rx="2" width="12" x="154" y="61" /><rect fill="#ebedf0" height="12" rx="2" width="12" x="154" y="77" /><rect fill="#ebedf0" height="12" rx="2" width="12" x="154" y="93" /><rect fill="#ebedf0" height="12" rx="2" width="12" x="154" y="109" /><rect fill="#ebedf0" height="12" rx="2" width="12" x="154" y="125" /><rect fill="#ebedf0" height="12" rx="2" width="12" x="154" y="141" /><rect fill="#ebedf0" height="12" rx="2" width="12" x="170" y="45" /><rect fill="#ebedf0" height="12" rx="2" width="12" x="170" y="61" /><rect fill="#ebedf0" height="12" rx="2" width="12" x="170" y="77" /><rect fill="#ebedf0" height="12" rx="2" width="12" x="170" y="93" /><rect fill="#ebedf0" height="12" rx="2" width="12" x="170" y="109" /><rect fill="#ebedf0" height="12" rx="2" width="12" x="170" y="125" /><rect fill="#ebedf0" height="12" rx="2" width="12" x="170" y="141" /><rect fill="#ebedf0" height="12" rx="2" width="12" x="186" y="45" /><rect fill="#ebedf0" height="12" rx="2" width="12" x="186" y="61" /><rect fill="#ebedf0" height="12" rx="2" width="12" x="186" y="77" /><rect fill="#ebedf0" height="12" rx="2" width="12" x="186" y="93" /><rect fill="#ebedf0" height="12" rx="2" width="12" x="186" y="109" /><rect fill="#ebedf0" height="12" rx="2" width="12" x="186" y="125" /><rect fill="#ebedf0" height="12" rx="2" width="12" x="186" y="141" /><rect fill="#ebedf0" height="12" rx="2" width="12" x="202" y="45" /><rect fill="#ebedf0" height="12" rx="2" width="12" x="202" y="61" /><rect fill="#ebedf0" height="12" rx="2" width="12" x="202" y="77" /><rect fill="#ebedf0" height="12" rx="2" width="12" x="202" y="93" /><rect fill="#ebedf0" height="12" rx="2" width="12" x="202" y="109" /><rect fill="#ebedf0" height="12" rx="2" width="12" x="202" y="125" /><rect fill="#ebedf0" height="12" rx="2" width="12" x="202" y="141" /><rect fill="#ebedf0" height="12" rx="2" width="12" x="218" y="45" /><rect fill="#ebedf0" height="12" rx="2" width="12" x="218" y="61" /><rect fill="#ebedf0" height="12" rx="2" width="12" x="218" y="77" /><text fill="#666" font-size="10px" x="218" y="35">Apr</text><line stroke="#999999" stroke-width="0.5" x1="216.0" x2="216.0" y1="43" y2="155" /><rect fill="#ebedf0" height="12" rx="2" width="12" x="218" y="93" /><rect fill="#ebedf0" height="12" rx="2" width="12" x="218" y="109" /><rect fill="#ebedf0" height="12" rx="2" width="12" x="218" y="125" /><rect fill="#ebedf0" height="12" rx="2" width="12" x="218" y="141" /><rect fill="#ebedf0" height="12" rx="2" width="12" x="234" y="45" /><rect fill="#ebedf0" height="12" rx="2" width="12" x="234" y="61" /><rect fill="#ebedf0" height="12" rx="2" width="12" x="234" y="77" /><rect fill="#ebedf0" height="12" rx="2" width="12" x="234" y="93" /><rect fill="#ebedf0" height="12" rx="2" width="12" x="234" y="109" /><rect fill="#ebedf0" height="12" rx="2" width="12" x="234" y="125" /><rect fill="#ebedf0" height="12" rx="2" width="12" x="234" y="141" /><rect fill="#ebedf0" height="12" rx="2" width="12" x="250" y="45" /><rect fill="#ebedf0" height="12" rx="2" width="12" x="250" y="61" /><rect fill="#ebedf0" height="12" rx="2" width="12" x="250" y="77" /><rect fill="#ebedf0" height="12" rx="2" width="12" x="250" y="93" /><rect fill="#ebedf0" height="12" rx="2" width="12" x="250" y="109" /><rect fill="#ebedf0" height="12" rx="2" width="12" x="250" y="125" /><rect fill="#ebedf0" height="12" rx="2" width="12" x="250" y="141" /><rect fill="#ebedf0" height="12" rx="2" width="12" x="266" y="45" /><rect fill="#ebedf0" height="12" rx="2" width="12" x="266" y="61" /><rect fill="#ebedf0" height="12" rx="2" width="12" x="266" y="77" /><rect fill="#ebedf0" height="12" rx="2" width="12" x="266" y="93" /><rect fill="#ebedf0" height="12" rx="2" width="12" x="266" y="109" /><rect fill="#ebedf0" height="12" rx="2" width="12" x="266" y="125" /><rect fill="#ebedf0" height="12" rx="2" width="12" x="266" y="141" /><rect fill="#ebedf0" height="12" rx="2" width="12" x="282" y="45" /><rect fill="#ebedf0" height="12" rx="2" width="12" x="282" y="61" /><rect fill="#ebedf0" height="12" rx="2" width="12" x="282" y="77" /><rect fill="#ebedf0" height="12" rx="2" width="12" x="282" y="93" /><rect fill="#ebedf0" height="12" rx="2" width="12" x="282" y="109" /><text fill="#666" font-size="10px" x="282" y="35">May</text><line stroke="#999999" stroke-width="0.5" x1="280.0" x2="280.0" y1="43" y2="155" /><rect fill="#ebedf0" height="12" rx="2" width="12" x="282" y="125" /><rect fill="#ebedf0" height="12" rx="2" width="12" x="282" y="141" /><rect fill="#ebedf0" height="12" rx="2" width="12" x="298" y="45" /><rect fill="#ebedf0" height="12" rx="2" width="12" x="298" y="61" /><rect fill="#ebedf0" height="12" rx="2" width="12" x="298" y="77" /><rect fill="#ebedf0" height="12" rx="2" width="12" x="298" y="93" /><rect fill="#ebedf0" height="12" rx="2" width="12" x="298" y="109" /><rect fill="#ebedf0" height="12" rx="2" width="12" x="298" y="125" /><rect fill="#ebedf0" height="12" rx="2" width="12" x="298" y="141" /><rect fill="#ebedf0" height="12" rx="2" width="12" x="314" y="45" /><rect fill="#ebedf0" height="12" rx="2" width="12" x="314" y="61" /><rect fill="#ebedf0" height="12" rx="2" width="12" x="314" y="77" /><rect fill="#ebedf0" height="12" rx="2" width="12" x="314" y="93" /><rect fill="#ebedf0" height="12" rx="2" width="12" x="314" y="109" /><rect fill="#ebedf0" height="12" rx="2" width="12" x="314" y="125" /><rect fill="#ebedf0" height="12" rx="2" width="12" x="314" y="141" /><rect fill="#ebedf0" height="12" rx="2" width="12" x="330" y="45" /><rect fill="#ebedf0" height="12" rx="2" width="12" x="330" y="61" /><rect fill="#ebedf0" height="12" rx="2" width="12" x="330" y="77" /><rect fill="#ebedf0" height="12" rx="2" width="12" x="330" y="93" /><rect fill="#ebedf0" height="12" rx="2" width="12" x="330" y="109" /><rect fill="#ebedf0" height="12" rx="2" width="12" x="330" y="125" /><rect fill="#ebedf0" height="12" rx="2" width="12" x="330" y="141" /><rect fill="#ebedf0" height="12" rx="2" width="12" x="346" y="45" /><rect fill="#ebedf0" height="12" rx="2" width="12" x="346" y="61" /><rect fill="#ebedf0" height="12" rx="2" width="12" x="346" y="77" /><rect fill="#ebedf0" height="12" rx="2" width="12" x="346" y="93" /><rect fill="#ebedf0" height="12" rx="2" width="12" x="346" y="109" /><rect fill="#ebedf0" height="12" rx="2" width="12" x="346" y="125" /><rect fill="#ebedf0" height="12" rx="2" width="12" x="346" y="141" /><rect fill="#ebedf0" height="12" rx="2" width="12" x="362" y="45" /><text fill="#666" font-size="10px" x="362" y="35">Jun</text><line stroke="#999999" stroke-width="0.5" x1="360.0" x2="360.0" y1="43" y2="155" /><rect fill="#ebedf0" height="12" rx="2" width="12" x="362" y="61" /><rect fill="#ebedf0" height="12" rx="2" width="12" x="362" y="77" /><rect fill="#ebedf0" height="12" rx="2" width="12" x="362" y="93" /><rect fill="#ebedf0" height="12" rx="2" width="12" x="362" y="109" /><rect fill="#ebedf0" height="12" rx="2" width="12" x="362" y="125" /><rect fill="#ebedf0" height="12" rx="2" width="12" x="362" y="141" /><rect fill="#ebedf0" height="12" rx="2" width="12" x="378" y="45" /><rect fill="#ebedf0" height="12" rx="2" width="12" x="378" y="61" /><rect fill="#ebedf0" height="12" rx="2" width="12" x="378" y="77" /><rect fill="#ebedf0" height="12" rx="2" width="12" x="378" y="93" /><rect fill="#ebedf0" height="12" rx="2" width="12" x="378" y="109" /><rect fill="#ebedf0" height="12" rx="2" width="12" x="378" y="125" /><rect fill="#ebedf0" height="12" rx="2" width="12" x="378" y="141" /><rect fill="#ebedf0" height="12" rx="2" width="12" x="394" y="45" /><rect fill="#ebedf0" height="12" rx="2" width="12" x="394" y="61" /><rect fill="#ebedf0" height="12" rx="2" width="12" x="394" y="77" /><rect fill="#ebedf0" height="12" rx="2" width="12" x="394" y="93" /><rect fill="#ebedf0" height="12" rx="2" width="12" x="394" y="109" /><rect fill="#ebedf0" height="12" rx="2" width="12" x="394" y="125" /><rect fill="#ebedf0" height="12" rx="2" width="12" x="394" y="141" /><rect fill="#ebedf0" height="12" rx="2" width="12" x="410" y="45" /><rect fill="#ebedf0" height="12" rx="2" width="12" x="410" y="61" /><rect fill="#ebedf0" height="12" rx="2" width="12" x="410" y="77" /><rect fill="#ebedf0" height="12" rx="2" width="12" x="410" y="93" /><rect fill="#ebedf0" height="12" rx="2" width="12" x="410" y="109" /><rect fill="#ebedf0" height="12" rx="2" width="12" x="410" y="125" /><rect fill="#ebedf0" height="12" rx="2" width="12" x="410" y="141" /><rect fill="#ebedf0" height="12" rx="2" width="12" x="426" y="45" /><rect fill="#ebedf0" height="12" rx="2" width="12" x="426" y="61" /><rect fill="#ebedf0" height="12" rx="2" width="12" x="426" y="77" /><text fill="#666" font-size="10px" x="426" y="35">Jul</text><line stroke="#999999" stroke-width="0.5" x1="424.0" x2="424.0" y1="43" y2="155" /><rect fill="#ebedf0" height="12" rx="2" width="12" x="426" y="93" /><rect fill="#ebedf0" height="12" rx="2" width="12" x="426" y="109" /><rect fill="#ebedf0" height="12" rx="2" width="12" x="426" y="125" /><rect fill="#ebedf0" height="12" rx="2" width="12" x="426" y="141" /><rect fill="#ebedf0" height="12" rx="2" width="12" x="442" y="45" /><rect fill="#ebedf0" height="12" rx="2" width="12" x="442" y="61" /><rect fill="#ebedf0" height="12" rx="2" width="12" x="442" y="77" /><rect fill="#ebedf0" height="12" rx="2" width="12" x="442" y="93" /><rect fill="#ebedf0" height="12" rx="2" width="12" x="442" y="109" /><rect fill="#ebedf0" height="12" rx="2" width="12" x="442" y="125" /><rect fill="#ebedf0" height="12" rx="2" width="12" x="442" y="141" /><rect fill="#ebedf0" height="12" rx="2" width="12" x="458" y="45" /><rect fill="#ebedf0" height="12" rx="2" width="12" x="458" y="61" /><rect fill="#ebedf0" height="12" rx="2" width="12" x="458" y="77" /><rect fill="#ebedf0" height="12" rx="2" width="12" x="458" y="93" /><rect fill="#ebedf0" height="12" rx="2" width="12" x="458" y="109" /><rect fill="#ebedf0" height="12" rx="2" width="12" x="458" y="125" /><rect fill="#ebedf0" height="12" rx="2" width="12" x="458" y="141" /><rect fill="#ebedf0" height="12" rx="2" width="12" x="474" y="45" /><rect fill="#ebedf0" height="12" rx="2" width="12" x="474" y="61" /><rect fill="#ebedf0" height="12" rx="2" width="12" x="474" y="77" /><rect fill="#ebedf0" height="12" rx="2" width="12" x="474" y="93" /><rect fill="#ebedf0" height="12" rx="2" width="12" x="474" y="109" /><rect fill="#ebedf0" height="12" rx="2" width="12" x="474" y="125" /><rect fill="#ebedf0" height="12" rx="2" width="12" x="474" y="141" /><rect fill="#ebedf0" height="12" rx="2" width="12" x="490" y="45" /><rect fill="#ebedf0" height="12" rx="2" width="12" x="490" y="61" /><rect fill="#ebedf0" height="12" rx="2" width="12" x="490" y="77" /><rect fill="#ebedf0" height="12" rx="2" width="12" x="490" y="93" /><rect fill="#ebedf0" height="12" rx="2" width="12" x="490" y="109" /><rect fill="#ebedf0" height="12" rx="2" width="12" x="490" y="125" /><text fill="#666" font-size="10px" x="490" y="35">Aug</text><line stroke="#999999" stroke-width="0.5" x1="488.0" x2="488.0" y1="43" y2="155" /><rect fill="#ebedf0" height="12" rx="2" width="12" x="490" y="141" /><rect fill="#ebedf0" height="12" rx="2" width="12" x="506" y="45" /><rect fill="#ebedf0" height="12" rx="2" width="12" x="506" y="61" /><rect fill="#ebedf0" height="12" rx="2" width="12" x="506" y="77" /><rect fill="#ebedf0" height="12" rx="2" width="12" x="506" y="93" /><rect fill="#ebedf0" height="12" rx="2" width="12" x="506" y="109" /><rect fill="#ebedf0" height="12" rx="2" width="12" x="506" y="125" /><rect fill="#ebedf0" height="12" rx="2" width="12" x="506" y="141" /><rect fill="#ebedf0" height="12" rx="2" width="12" x="522" y="45" /><rect fill="#ebedf0" height="12" rx="2" width="12" x="522" y="61" /><rect fill="#ebedf0" height="12" rx="2" width="12" x="522" y="77" /><rect fill="#ebedf0" height="12" rx="2" width="12" x="522" y="93" /><rect fill="#ebedf0" height="12" rx="2" width="12" x="522" y="109" /><rect fill="#ebedf0" height="12" rx="2" width="12" x="522" y="125" /><rect fill="#ebedf0" height="12" rx="2" width="12" x="522" y="141" /><rect fill="#ebedf0" height="12" rx="2" width="12" x="538" y="45" /><rect fill="#ebedf0" height="12" rx="2" width="12" x="538" y="61" /><rect fill="#ebedf0" height="12" rx="2" width="12" x="538" y="77" /><rect fill="#ebedf0" height="12" rx="2" width="12" x="538" y="93" /><rect fill="#ebedf0" height="12" rx="2" width="12" x="538" y="109" /><rect fill="#ebedf0" height="12" rx="2" width="12" x="538" y="125" /><rect fill="#ebedf0" height="12" rx="2" width="12" x="538" y="141" /><rect fill="#ebedf0" height="12" rx="2" width="12" x="554" y="45" /><rect fill="#ebedf0" height="12" rx="2" width="12" x="554" y="61" /><rect fill="#ebedf0" height="12" rx="2" width="12" x="554" y="77" /><rect fill="#ebedf0" height="12" rx="2" width="12" x="554" y="93" /><rect fill="#ebedf0" height="12" rx="2" width="12" x="554" y="109" /><rect fill="#ebedf0" height="12" rx="2" width="12" x="554" y="125" /><rect fill="#ebedf0" height="12" rx="2" width="12" x="554" y="141" /><rect fill="#ebedf0" height="12" rx="2" width="12" x="570" y="45" /><rect fill="#ebedf0" height="12" rx="2" width="12" x="570" y="61" /><text fill="#666" font-size="10px" x="570" y="35">Sep</text><line stroke="#999999" stroke-width="0.5" x1="568.0" x2="568.0" y1="43" y2="155" /><rect fill="#ebedf0" height="12" rx="2" width="12" x="570" y="77" /><rect fill="#ebedf0" height="12" rx="2" width="12" x="570" y="93" /><rect fill="#ebedf0" height="12" rx="2" width="12" x="570" y="109" /><rect fill="#ebedf0" height="12" rx="2" width="12" x="570" y="125" /><rect fill="#ebedf0" height="12" rx="2" width="12" x="570" y="141" /><rect fill="#ebedf0" height="12" rx="2" width="12" x="586" y="45" /><rect fill="#ebedf0" height="12" rx="2" width="12" x="586" y="61" /><rect fill="#ebedf0" height="12" rx="2" width="12" x="586" y="77" /><rect fill="#ebedf0" height="12" rx="2" width="12" x="586" y="93" /><rect fill="#ebedf0" height="12" rx="2" width="12" x="586" y="109" /><rect fill="#ebedf0" height="12" rx="2" width="12" x="586" y="125" /><rect fill="#ebedf0" height="12" rx="2" width="12" x="586" y="141" /><rect fill="#ebedf0" height="12" rx="2" width="12" x="602" y="45" /><rect fill="#ebedf0" height="12" rx="2" width="12" x="602" y="61" /><rect fill="#ebedf0" height="12" rx="2" width="12" x="602" y="77" /><rect fill="#ebedf0" height="12" rx="2" width="12" x="602" y="93" /><rect fill="#ebedf0" height="12" rx="2" width="12" x="602" y="109" /><rect fill="#ebedf0" height="12" rx="2" width="12" x="602" y="125" /><rect fill="#ebedf0" height="12" rx="2" width="12" x="602" y="141" /><rect fill="#ebedf0" height="12" rx="2" width="12" x="618" y="45" /><rect fill="#ebedf0" height="12" rx="2" width="12" x="618" y="61" /><rect fill="#ebedf0" height="12" rx="2" width="12" x="618" y="77" /><rect fill="#ebedf0" height="12" rx="2" width="12" x="618" y="93" /><rect fill="#ebedf0" height="12" rx="2" width="12" x="618" y="109" /><rect fill="#ebedf0" height="12" rx="2" width="12" x="618" y="125" /><rect fill="#ebedf0" height="12" rx="2" width="12" x="618" y="141" /><rect fill="#ebedf0" height="12" rx="2" width="12" x="634" y="45" /><rect fill="#ebedf0" height="12" rx="2" width="12" x="634" y="61" /><rect fill="#ebedf0" height="12" rx="2" width="12" x="634" y="77" /><rect fill="#ebedf0" height="12" rx="2" width="12" x="634" y="93" /><text fill="#666" font-size="10px" x="634" y="35">Oct</text><line stroke="#999999" stroke-width="0.5" x1="632.0" x2="632.0" y1="43" y2="155" /><rect fill="#ebedf0" height="12" rx="2" width="12" x="634" y="109" /><rect fill="#ebedf0" height="12" rx="2" width="12" x="634" y="125" /><rect fill="#ebedf0" height="12" rx="2" width="12" x="634" y="141" /><rect fill="#ebedf0" height="12" rx="2" width="12" x="650" y="45" /><rect fill="#ebedf0" height="12" rx="2" width="12" x="650" y="61" /><rect fill="#ebedf0" height="12" rx="2" width="12" x="650" y="77" /><rect fill="#ebedf0" height="12" rx="2" width="12" x="650" y="93" /><rect fill="#ebedf0" height="12" rx="2" width="12" x="650" y="109" /><rect fill="#ebedf0" height="12" rx="2" width="12" x="650" y="125" /><rect fill="#ebedf0" height="12" rx="2" width="12" x="650" y="141" /><rect fill="#ebedf0" height="12" rx="2" width="12" x="666" y="45" /><rect fill="#ebedf0" height="12" rx="2" width="12" x="666" y="61" /><rect fill="#ebedf0" height="12" rx="2" width="12" x="666" y="77" /><rect fill="#ebedf0" height="12" rx="2" width="12" x="666" y="93" /><rect fill="#ebedf0" height="12" rx="2" width="12" x="666" y="109" /><rect fill="#ebedf0" height="12" rx="2" width="12" x="666" y="125" /><rect fill="#ebedf0" height="12" rx="2" width="12" x="666" y="141" /><rect fill="#ebedf0" height="12" rx="2" width="12" x="682" y="45" /><rect fill="#ebedf0" height="12" rx="2" width="12" x="682" y="61" /><rect fill="#ebedf0" height="12" rx="2" width="12" x="682" y="77" /><rect fill="#ebedf0" height="12" rx="2" width="12" x="682" y="93" /><rect fill="#ebedf0" height="12" rx="2" width="12" x="682" y="109" /><rect fill="#ebedf0" height="12" rx="2" width="12" x="682" y="125" /><rect fill="#ebedf0" height="12" rx="2" width="12" x="682" y="141" /><rect fill="#ebedf0" height="12" rx="2" width="12" x="698" y="45" /><rect fill="#ebedf0" height="12" rx="2" width="12" x="698" y="61" /><rect fill="#ebedf0" height="12" rx="2" width="12" x="698" y="77" /><rect fill="#ebedf0" height="12" rx="2" width="12" x="698" y="93" /><rect fill="#ebedf0" height="12" rx="2" width="12" x="698" y="109" /><rect fill="#ebedf0" height="12" rx="2" width="12" x="698" y="125" /><rect fill="#ebedf0" height="12" rx="2" width="12" x="698" y="141" /><text fill="#666" font-size="10px" x="698" y="35">Nov</text><line stroke="#999999" stroke-width="0.5" x1="696.0" x2="696.0" y1="43" y2="155" /><rect fill="#ebedf0" height="12" rx="2" width="12" x="714" y="45" /><rect fill="#ebedf0" height="12" rx="2" width="12" x="714" y="61" /><rect fill="#ebedf0" height="12" rx="2" width="12" x="714" y="77" /><rect fill="#ebedf0" height="12" rx="2" width="12" x="714" y="93" /><rect fill="#ebedf0" height="12" rx="2" width="12" x="714" y="109" /><rect fill="#ebedf0" height="12" rx="2" width="12" x="714" y="125" /><rect fill="#ebedf0" height="12" rx="2" width="12" x="714" y="141" /><rect fill="#ebedf0" height="12" rx="2" width="12" x="730" y="45" /><rect fill="#ebedf0" height="12" rx="2" width="12" x="730" y="61" /><rect fill="#ebedf0" height="12" rx="2" width="12" x="730" y="77" /><rect fill="#ebedf0" height="12" rx="2" width="12" x="730" y="93" /><rect fill="#ebedf0" height="12" rx="2" width="12" x="730" y="109" /><rect fill="#ebedf0" height="12" rx="2" width="12" x="730" y="125" /><rect fill="#ebedf0" height="12" rx="2" width="12" x="730" y="141" /><rect fill="#ebedf0" height="12" rx="2" width="12" x="746" y="45" /><rect fill="#ebedf0" height="12" rx="2" width="12" x="746" y="61" /><rect fill="#ebedf0" height="12" rx="2" width="12" x="746" y="77" /><rect fill="#ebedf0" height="12" rx="2" width="12" x="746" y="93" /><rect fill="#ebedf0" height="12" rx="2" width="12" x="746" y="109" /><rect fill="#ebedf0" height="12" rx="2" width="12" x="746" y="125" /><rect fill="#ebedf0" height="12" rx="2" width="12" x="746" y="141" /><rect fill="#ebedf0" height="12" rx="2" width="12" x="762" y="45" /><rect fill="#ebedf0" height="12" rx="2" width="12" x="762" y="61" /><rect fill="#ebedf0" height="12" rx="2" width="12" x="762" y="77" /><rect fill="#ebedf0" height="12" rx="2" width="12" x="762" y="93" /><rect fill="#ebedf0" height="12" rx="2" width="12" x="762" y="109" /><rect fill="#ebedf0" height="12" rx="2" width="12" x="762" y="125" /><rect fill="#ebedf0" height="12" rx="2" width="12" x="762" y="141" /><rect fill="#ebedf0" height="12" rx="2" width="12" x="778" y="45" /><rect fill="#ebedf0" height="12" rx="2" width="12" x="778" y="61" /><text fill="#666" font-size="10px" x="778" y="35">Dec</text><line stroke="#999999" stroke-width="0.5" x1="776.0" x2="776.0" y1="43" y2="155" /><rect fill="#ebedf0" height="12" rx="2" width="12" x="778" y="77" /><rect fill="#ebedf0" height="12" rx="2" width="12" x="778" y="93" /><rect fill="#ebedf0" height="12" rx="2" width="12" x="778" y="109" /><rect fill="#ebedf0" height="12" rx="2" width="12" x="778" y="125" /><rect fill="#ebedf0" height="12" rx="2" width="12" x="778" y="141" /><rect fill="#ebedf0" height="12" rx="2" width="12" x="794" y="45" /><rect fill="#ebedf0" height="12" rx="2" width="12" x="794" y="61" /><rect fill="#ebedf0" height="12" rx="2" width="12" x="794" y="77" /><rect fill="#ebedf0" height="12" rx="2" width="12" x="794" y="93" /><rect fill="#ebedf0" height="12" rx="2" width="12" x="794" y="109" /><rect fill="#ebedf0" height="12" rx="2" width="12" x="794" y="125" /><rect fill="#ebedf0" height="12" rx="2" width="12" x="794" y="141" /><rect fill="#ebedf0" height="12" rx="2" width="12" x="810" y="45" /><rect fill="#ebedf0" height="12" rx="2" width="12" x="810" y="61" /><rect fill="#ebedf0" height="12" rx="2" width="12" x="810" y="77" /><rect fill="#ebedf0" height="12" rx="2" width="12" x="810" y="93" /><rect fill="#ebedf0" height="12" rx="2" width="12" x="810" y="109" /><rect fill="#ebedf0" height="12" rx="2" width="12" x="810" y="125" /><rect fill="#ebedf0" height="12" rx="2" width="12" x="810" y="141" /><rect fill="#ebedf0" height="12" rx="2" width="12" x="826" y="45" /><rect fill="#ebedf0" height="12" rx="2" width="12" x="826" y="61" /><rect fill="#ebedf0" height="12" rx="2" width="12" x="826" y="77" /><rect fill="#ebedf0" height="12" rx="2" width="12" x="826" y="93" /><rect fill="#ebedf0" height="12" rx="2" width="12" x="826" y="109" /><rect fill="#ebedf0" height="12" rx="2" width="12" x="826" y="125" /><rect fill="#ebedf0" height="12" rx="2" width="12" x="826" y="141" /><rect fill="#ebedf0" height="12" rx="2" width="12" x="842" y="45" /><rect fill="#ebedf0" height="12" rx="2" width="12" x="842" y="61" /><rect fill="#ebedf0" height="12" rx="2" width="12" x="842" y="77" /><rect fill="#ebedf0" height="12" rx="2" width="12" x="842" y="93" /></svg>