<?xml version="1.0" encoding="utf-8" ?>
<svg baseProfile="full" height="160px" version="1.1" width="850px" xmlns="http://www.w3.org/2000/svg" xmlns:ev="http://www.w3.org/2001/xml-events" xmlns:xlink="http://www.w3.org/1999/xlink"><defs /><text fill="#333" font-family="monospace" font-size="14px" font-weight="bold" x="10" y="25">🚀 YEARLY FOCUS: 7 HRS | 🔥 TOTAL LIFETIME: 7 HRS</text><rect fill="#FFBC42" height="12" rx="2" width="12" x="0" y="88" /><rect fill="#218380" height="12" rx="2" width="12" x="0" y="104" /><rect fill="#D81159" height="12" rx="2" width="12" x="0" y="120" /><rect fill="#ebedf0" height="12" rx="2" width="12" x="0" y="136" /><rect fill="#ebedf0" height="12" rx="2" width="12" x="16" y="40" /><rect fill="#ebedf0" height="12" rx="2" width="12" x="16" y="56" /><rect fill="#ebedf0" height="12" rx="2" width="12" x="16" y="72" /><rect fill="#ebedf0" height="12" rx="2" width="12" x="16" y="88" /><rect fill="#ebedf0" height="12" rx="2" width="12" x="16" y="104" /><rect fill="#ebedf0" height="12" rx="2" width="12" x="16" y="120" /><rect fill="#ebedf0" height="12" rx="2" width="12" x="16" y="136" /><rect fill="#ebedf0" height="12" rx="2" width="12" x="32" y="40" /><rect fill="#ebedf0" height="12" rx="2" width="12" x="32" y="56" /><rect fill="#ebedf0" height="12" rx="2" width="12" x="32" y="72" /><rect fill="#ebedf0" height="12" rx="2" width="12" x="32" y="88" /><rect fill="#ebedf0" height="12" rx="2" width="12" x="32" y="104" /><rect fill="#ebedf0" height="12" rx="2" width="12" x="32" y="120" /><rect fill="#ebedf0" height="12" rx="2" width="12" x="32" y="136" /><rect fill="#ebedf0" height="12" rx="2" width="12" x="48" y="40" /><rect fill="#ebedf0" height="12" rx="2" width="12" x="48" y="56" /><rect fill="#ebedf0" height="12" rx="2" width="12" x="48" y="72" /><rect fill="#ebedf0" height="12" rx="2" width="12" x="48" y="88" /><rect fill="#ebedf0" height="12" rx="2" width="12" x="48" y="104" /><rect fill="#ebedf0" height="12" rx="2" width="12" x="48" y="120" /><rect fill="#ebedf0" height="12" rx="2" width="12" x="48" y="136" /><rect fill="#ebedf0" height="12" rx="2" width="12" x="64" y="40" /><rect fill="#ebedf0" height="12" rx="2" width="12" x="64" y="56" /><rect fill="#ebedf0" height="12" rx="2" width="12" x="64" y="72" /><rect fill="#ebedf0" height="12" rx="2" width="12" x="64" y="88" /><rect fill="#ebedf0" height="12" rx="2" width="12" x="64" y="104" /><rect fill="#ebedf0" height="12" rx="2" width="12" x="64" y="120" /><rect fill="#ebedf0" height="12" rx="2" width="12" x="64" y="136" /><rect fill="#ebedf0" height="12" rx="2" width="12" x="80" y="40" /><rect fill="#ebedf0" height="12" rx="2" width="12" x="80" y="56" /><rect fill="#ebedf0" height="12" rx="2" width="12" x="80" y="72" /><rect fill="#ebedf0" height="12" rx="2" width="12" x="80" y="88" /><rect fill="#ebedf0" height="12" rx="2" width="12" x="80" y="104" /><rect fill="#ebedf0" height="12" rx="2" width="12" x="80" y="120" /><rect fill="#ebedf0" height="12" rx="2" width="12" x="80" y="136" /><rect fill="#ebedf0" height="12" rx="2" width="12" x="96" y="40" /><rect fill="#ebedf0" height="12" rx="2" width="12" x="96" y="56" /><rect fill="#ebedf0" height="12" rx="2" width="12" x="96" y="72" /><rect fill="#ebedf0" height="12" rx="2" width="12" x="96" y="88" /><rect fill="#ebedf0" height="12" rx="2" width="12" x="96" y="104" /><rect fill="#ebedf0" height="12" rx="2" width="12" x="96" y="120" /><rect fill="#ebedf0" height="12" rx="2" width="12" x="96" y="136" /><rect fill="#ebedf0" height="12" rx="2" width="12" x="112" y="40" /><rect fill="#ebedf0" height="12" rx="2" width="12" x="112" y="56" /><rect fill="#ebedf0" height="12" rx="2" width="12" x="112" y="72" /><rect fill="#ebedf0" height="12" rx="2" width="12" x="112" y="88" /><rect fill="#ebedf0" height="12" rx="2" width="12" x="112" y="104" /><rect fill="#ebedf0" height="12" rx="2" width="12" x="112" y="120" /><rect fill="#ebedf0" height="12" rx="2" width="12" x="112" y="136" /><rect fill="#ebedf0" height="12" rx="2" width="12" x="128" y="40" /><rect fill="#ebedf0" height="12" rx="2" width="12" x="128" y="56" /><rect fill="#ebedf0" height="12" rx="2" width="12" x="128" y="72" /><rect fill="#ebedf0" height="12" rx="2" width="12" x="128" y="88" /><rect fill="#ebedf0" height="12" rx="2" width="12" x="128" y="104" /><rect fill="#ebedf0" height="12" rx="2" width="12" x="128" y="120" /><rect fill="#ebedf0" height="12" rx="2" width="12" x="128" y="136" /><rect fill="#ebedf0" height="12" rx="2" width="12" x="144" y="40" /><rect fill="#ebedf0" height="12" rx="2" width="12" x="144" y="56" /><rect fill="#ebedf0" height="12" rx="2" width="12" x="144" y="72" /><rect fill="#ebedf0" height="12" rx="2" width="12" x="144" y="88" /><rect fill="#ebedf0" height="12" rx="2" width="12" x="144" y="104" /><rect fill="#ebedf0" height="12" rx="2" width="12" x="144" y="120" /><rect fill="#ebedf0" height="12" rx="2" width="12" x="144" y="136" /><rect fill="#ebedf0" height="12" rx="2" width="12" x="160" y="40" /><rect fill="#ebedf0" height="12" rx="2" width="12" x="160" y="56" /><rect fill="#ebedf0" height="12" rx="2" width="12" x="160" y="72" /><rect fill="#ebedf0" height="12" rx="2" width="12" x="160" y="88" /><rect fill="#ebedf0" height="12" rx="2" width="12" x="160" y="104" /><rect fill="#ebedf0" height="12" rx="2" width="12" x="160" y="120" /><rect fill="#ebedf0" height="12" rx="2" width="12" x="160" y="136" /><rect fill="#ebedf0" height="12" rx="2" width="12" x="176" y="40" /><rect fill="#ebedf0" height="12" rx="2" width="12" x="176" y="56" /><rect fill="#ebedf0" height="12" rx="2" width="12" x="176" y="72" /><rect fill="#ebedf0" height="12" rx="2" width="12" x="176" y="88" /><rect fill="#ebedf0" height="12" rx="2" width="12" x="176" y="104" /><rect fill="#ebedf0" height="12" rx="2" width="12" x="176" y="120" /><rect fill="#ebedf0" height="12" rx="2" width="12" x="176" y="136" /><rect fill="#ebedf0" height="12" rx="2" width="12" x="192" y="40" /><rect fill="#ebedf0" height="12" rx="2" width="12" x="192" y="56" /><rect fill="#ebedf0" height="12" rx="2" width="12" x="192" y="72" /><rect fill="#ebedf0" height="12" rx="2" width="12" x="192" y="88" /><rect fill="#ebedf0" height="12" rx="2" width="12" x="192" y="104" /><rect fill="#ebedf0" height="12" rx="2" width="12" x="192" y="120" /><rect fill="#ebedf0" height="12" rx="2" width="12" x="192" y="136" /><rect fill="#ebedf0" height="12" rx="2" width="12" x="208" y="40" /><rect fill="#ebedf0" height="12" rx="2" width="12" x="208" y="56" /><rect fill="#ebedf0" height="12" rx="2" width="12" x="208" y="72" /><rect fill="#ebedf0" height="12" rx="2" width="12" x="208" y="88" /><rect fill="#ebedf0" height="12" rx="2" width="12" x="208" y="104" /><rect fill="#ebedf0" height="12" rx="2" width="12" x="208" y="120" /><rect fill="#ebedf0" height="12" rx="2" width="12" x="208" y="136" /><rect fill="#ebedf0" height="12" rx="2" width="12" x="224" y="40" /><rect fill="#ebedf0" height="12" rx="2" width="12" x="224" y="56" /><rect fill="#ebedf0" height="12" rx="2" width="12" x="224" y="72" /><rect fill="#ebedf0" height="12" rx="2" width="12" x="224" y="88" /><rect fill="#ebedf0" height="12" rx="2" width="12" x="224" y="104" /><rect fill="#ebedf0" height="12" rx="2" width="12" x="224" y="120" /><rect fill="#ebedf0" height="12" rx="2" width="12" x="224" y="136" /><rect fill="#ebedf0" height="12" rx="2" width="12" x="240" y="40" /><rect fill="#ebedf0" height="12" rx="2" width="12" x="240" y="56" /><rect fill="#ebedf0" height="12" rx="2" width="12" x="240" y="72" /><rect fill="#ebedf0" height="12" rx="2" width="12" x="240" y="88" /><rect fill="#ebedf0" height="12" rx="2" width="12" x="240" y="104" /><rect fill="#ebedf0" height="12" rx="2" width="12" x="240" y="120" /><rect fill="#ebedf0" height="12" rx="2" width="12" x="240" y="136" /><rect fill="#ebedf0" height="12" rx="2" width="12" x="256" y="40" /><rect fill="#ebedf0" height="12" rx="2" width="12" x="256" y="56" /><rect fill="#ebedf0" height="12" rx="2" width="12" x="256" y="72" /><rect fill="#ebedf0" height="12" rx="2" width="12" x="256" y="88" /><rect fill="#ebedf0" height="12" rx="2" width="12" x="256" y="104" /><rect fill="#ebedf0" height="12" rx="2" width="12" x="256" y="120" /><rect fill="#ebedf0" height="12" rx="2" width="12" x="256" y="136" /><rect fill="#ebedf0" height="12" rx="2" width="12" x="272" y="40" /><rect fill="#ebedf0" height="12" rx="2" width="12" x="272" y="56" /><rect fill="#ebedf0" height="12" rx="2" width="12" x="272" y="72" /><rect fill="#ebedf0" height="12" rx="2" width="12" x="272" y="88" /><rect fill="#ebedf0" height="12" rx="2" width="12" x="272" y="104" /><rect fill="#ebedf0" height="12" rx="2" width="12" x="272" y="120" /><rect fill="#ebedf0" height="12" rx="2" width="12" x="272" y="136" /><rect fill="#ebedf0" height="12" rx="2" width="12" x="288" y="40" /><rect fill="#ebedf0" height="12" rx="2" width="12" x="288" y="56" /><rect fill="#ebedf0" height="12" rx="2" width="12" x="288" y="72" /><rect fill="#ebedf0" height="12" rx="2" width="12" x="288" y="88" /><rect fill="#ebedf0" height="12" rx="2" width="12" x="288" y="104" /><rect fill="#ebedf0" height="12" rx="2" width="12" x="288" y="120" /><rect fill="#ebedf0" height="12" rx="2" width="12" x="288" y="136" /><rect fill="#ebedf0" height="12" rx="2" width="12" x="304" y="40" /><rect fill="#ebedf0" height="12" rx="2" width="12" x="304" y="56" /><rect fill="#ebedf0" height="12" rx="2" width="12" x="304" y="72" /><rect fill="#ebedf0" height="12" rx="2" width="12" x="304" y="88" /><rect fill="#ebedf0" height="12" rx="2" width="12" x="304" y="104" /><rect fill="#ebedf0" height="12" rx="2" width="12" x="304" y="120" /><rect fill="#ebedf0" height="12" rx="2" width="12" x="304" y="136" /><rect fill="#ebedf0" height="12" rx="2" width="12" x="320" y="40" /><rect fill="#ebedf0" height="12" rx="2" width="12" x="320" y="56" /><rect fill="#ebedf0" height="12" rx="2" width="12" x="320" y="72" /><rect fill="#ebedf0" height="12" rx="2" width="12" x="320" y="88" /><rect fill="#ebedf0" height="12" rx="2" width="12" x="320" y="104" /><rect fill="#ebedf0" height="12" rx="2" width="12" x="320" y="120" /><rect fill="#ebedf0" height="12" rx="2" width="12" x="320" y="136" /><rect fill="#ebedf0" height="12" rx="2" width="12" x="336" y="40" /><rect fill="#ebedf0" height="12" rx="2" width="12" x="336" y="56" /><rect fill="#ebedf0" height="12" rx="2" width="12" x="336" y="72" /><rect fill="#ebedf0" height="12" rx="2" width="12" x="336" y="88" /><rect fill="#ebedf0" height="12" rx="2" width="12" x="336" y="104" /><rect fill="#ebedf0" height="12" rx="2" width="12" x="336" y="120" /><rect fill="#ebedf0" height="12" rx="2" width="12" x="336" y="136" /><rect fill="#ebedf0" height="12" rx="2" width="12" x="352" y="40" /><rect fill="#ebedf0" height="12" rx="2" width="12" x="352" y="56" /><rect fill="#ebedf0" height="12" rx="2" width="12" x="352" y="72" /><rect fill="#ebedf0" height="12" rx="2" width="12" x="352" y="88" /><rect fill="#ebedf0" height="12" rx="2" width="12" x="352" y="104" /><rect fill="#ebedf0" height="12" rx="2" width="12" x="352" y="120" /><rect fill="#ebedf0" height="12" rx="2" width="12" x="352" y="136" /><rect fill="#ebedf0" height="12" rx="2" width="12" x="368" y="40" /><rect fill="#ebedf0" height="12" rx="2" width="12" x="368" y="56" /><rect fill="#ebedf0" height="12" rx="2" width="12" x="368" y="72" /><rect fill="#ebedf0" height="12" rx="2" width="12" x="368" y="88" /><rect fill="#ebedf0" height="12" rx="2" width="12" x="368" y="104" /><rect fill="#ebedf0" height="12" rx="2" width="12" x="368" y="120" /><rect fill="#ebedf0" height="12" rx="2" width="12" x="368" y="136" /><rect fill="#ebedf0" height="12" rx="2" width="12" x="384" y="40" /><rect fill="#ebedf0" height="12" rx="2" width="12" x="384" y="56" /><rect fill="#ebedf0" height="12" rx="2" width="12" x="384" y="72" /><rect fill="#ebedf0" height="12" rx="2" width="12" x="384" y="88" /><rect fill="#ebedf0" height="12" rx="2" width="12" x="384" y="104" /><rect fill="#ebedf0" height="12" rx="2" width="12" x="384" y="120" /><rect fill="#ebedf0" height="12" rx="2" width="12" x="384" y="136" /><rect fill="#ebedf0" height="12" rx="2" width="12" x="400" y="40" /><rect fill="#ebedf0" height="12" rx="2" width="12" x="400" y="56" /><rect fill="#ebedf0" height="12" rx="2" width="12" x="400" y="72" /><rect fill="#ebedf0" height="12" rx="2" width="12" x="400" y="88" /><rect fill="#ebedf0" height="12" rx="2" width="12" x="400" y="104" /><rect fill="#ebedf0" height="12" rx="2" width="12" x="400" y="120" /><rect fill="#ebedf0" height="12" rx="2" width="12" x="400" y="136" /><rect fill="#ebedf0" height="12" rx="2" width="12" x="416" y="40" /><rect fill="#ebedf0" height="12" rx="2" width="12" x="416" y="56" /><rect fill="#ebedf0" height="12" rx="2" width="12" x="416" y="72" /><rect fill="#ebedf0" height="12" rx="2" width="12" x="416" y="88" /><rect fill="#ebedf0" height="12" rx="2" width="12" x="416" y="104" /><rect fill="#ebedf0" height="12" rx="2" width="12" x="416" y="120" /><rect fill="#ebedf0" height="12" rx="2" width="12" x="416" y="136" /><rect fill="#ebedf0" height="12" rx="2" width="12" x="432" y="40" /><rect fill="#ebedf0" height="12" rx="2" width="12" x="432" y="56" /><rect fill="#ebedf0" height="12" rx="2" width="12" x="432" y="72" /><rect fill="#ebedf0" height="12" rx="2" width="12" x="432" y="88" /><rect fill="#ebedf0" height="12" rx="2" width="12" x="432" y="104" /><rect fill="#ebedf0" height="12" rx="2" width="12" x="432" y="120" /><rect fill="#ebedf0" height="12" rx="2" width="12" x="432" y="136" /><rect fill="#ebedf0" height="12" rx="2" width="12" x="448" y="40" /><rect fill="#ebedf0" height="12" rx="2" width="12" x="448" y="56" /><rect fill="#ebedf0" height="12" rx="2" width="12" x="448" y="72" /><rect fill="#ebedf0" height="12" rx="2" width="12" x="448" y="88" /><rect fill="#ebedf0" height="12" rx="2" width="12" x="448" y="104" /><rect fill="#ebedf0" height="12" rx="2" width="12" x="448" y="120" /><rect fill="#ebedf0" height="12" rx="2" width="12" x="448" y="136" /><rect fill="#ebedf0" height="12" rx="2" width="12" x="464" y="40" /><rect fill="#ebedf0" height="12" rx="2" width="12" x="464" y="56" /><rect fill="#ebedf0" height="12" rx="2" width="12" x="464" y="72" /><rect fill="#ebedf0" height="12" rx="2" width="12" x="464" y="88" /><rect fill="#ebedf0" height="12" rx="2" width="12" x="464" y="104" /><rect fill="#ebedf0" height="12" rx="2" width="12" x="464" y="120" /><rect fill="#ebedf0" height="12" rx="2" width="12" x="464" y="136" /><rect fill="#ebedf0" height="12" rx="2" width="12" x="480" y="40" /><rect fill="#ebedf0" height="12" rx="2" width="12" x="480" y="56" /><rect fill="#ebedf0" height="12" rx="2" width="12" x="480" y="72" /><rect fill="#ebedf0" height="12" rx="2" width="12" x="480" y="88" /><rect fill="#ebedf0" height="12" rx="2" width="12" x="480" y="104" /><rect fill="#ebedf0" height="12" rx="2" width="12" x="480" y="120" /><rect fill="#ebedf0" height="12" rx="2" width="12" x="480" y="136" /><rect fill="#ebedf0" height="12" rx="2" width="12" x="496" y="40" /><rect fill="#ebedf0" height="12" rx="2" width="12" x="496" y="56" /><rect fill="#ebedf0" height="12" rx="2" width="12" x="496" y="72" /><rect fill="#ebedf0" height="12" rx="2" width="12" x="496" y="88" /><rect fill="#ebedf0" height="12" rx="2" width="12" x="496" y="104" /><rect fill="#ebedf0" height="12" rx="2" width="12" x="496" y="120" /><rect fill="#ebedf0" height="12" rx="2" width="12" x="496" y="136" /><rect fill="#ebedf0" height="12" rx="2" width="12" x="512" y="40" /><rect fill="#ebedf0" height="12" rx="2" width="12" x="512" y="56" /><rect fill="#ebedf0" height="12" rx="2" width="12" x="512" y="72" /><rect fill="#ebedf0" height="12" rx="2" width="12" x="512" y="88" /><rect fill="#ebedf0" height="12" rx="2" width="12" x="512" y="104" /><rect fill="#ebedf0" height="12" rx="2" width="12" x="512" y="120" /><rect fill="#ebedf0" height="12" rx="2" width="12" x="512" y="136" /><rect fill="#ebedf0" height="12" rx="2" width="12" x="528" y="40" /><rect fill="#ebedf0" height="12" rx="2" width="12" x="528" y="56" /><rect fill="#ebedf0" height="12" rx="2" width="12" x="528" y="72" /><rect fill="#ebedf0" height="12" rx="2" width="12" x="528" y="88" /><rect fill="#ebedf0" height="12" rx="2" width="12" x="528" y="104" /><rect fill="#ebedf0" height="12" rx="2" width="12" x="528" y="120" /><rect fill="#ebedf0" height="12" rx="2" width="12" x="528" y="136" /><rect fill="#ebedf0" height="12" rx="2" width="12" x="544" y="40" /><rect fill="#ebedf0" height="12" rx="2" width="12" x="544" y="56" /><rect fill="#ebedf0" height="12" rx="2" width="12" x="544" y="72" /><rect fill="#ebedf0" height="12" rx="2" width="12" x="544" y="88" /><rect fill="#ebedf0" height="12" rx="2" width="12" x="544" y="104" /><rect fill="#ebedf0" height="12" rx="2" width="12" x="544" y="120" /><rect fill="#ebedf0" height="12" rx="2" width="12" x="544" y="136" /><rect fill="#ebedf0" height="12" rx="2" width="12" x="560" y="40" /><rect fill="#ebedf0" height="12" rx="2" width="12" x="560" y="56" /><rect fill="#ebedf0" height="12" rx="2" width="12" x="560" y="72" /><rect fill="#ebedf0" height="12" rx="2" width="12" x="560" y="88" /><rect fill="#ebedf0" height="12" rx="2" width="12" x="560" y="104" /><rect fill="#ebedf0" height="12" rx="2" width="12" x="560" y="120" /><rect fill="#ebedf0" height="12" rx="2" width="12" x="560" y="136" /><rect fill="#ebedf0" height="12" rx="2" width="12" x="576" y="40" /><rect fill="#ebedf0" height="12" rx="2" width="12" x="576" y="56" /><rect fill="#ebedf0" height="12" rx="2" width="12" x="576" y="72" /><rect fill="#ebedf0" height="12" rx="2" width="12" x="576" y="88" /><rect fill="#ebedf0" height="12" rx="2" width="12" x="576" y="104" /><rect fill="#ebedf0" height="12" rx="2" width="12" x="576" y="120" /><rect fill="#ebedf0" height="12" rx="2" width="12" x="576" y="136" /><rect fill="#ebedf0" height="12" rx="2" width="12" x="592" y="40" /><rect fill="#ebedf0" height="12" rx="2" width="12" x="592" y="56" /><rect fill="#ebedf0" height="12" rx="2" width="12" x="592" y="72" /><rect fill="#ebedf0" height="12" rx="2" width="12" x="592" y="88" /><rect fill="#ebedf0" height="12" rx="2" width="12" x="592" y="104" /><rect fill="#ebedf0" height="12" rx="2" width="12" x="592" y="120" /><rect fill="#ebedf0" height="12" rx="2" width="12" x="592" y="136" /><rect fill="#ebedf0" height="12" rx="2" width="12" x="608" y="40" /><rect fill="#ebedf0" height="12" rx="2" width="12" x="608" y="56" /><rect fill="#ebedf0" height="12" rx="2" width="12" x="608" y="72" /><rect fill="#ebedf0" height="12" rx="2" width="12" x="608" y="88" /><rect fill="#ebedf0" height="12" rx="2" width="12" x="608" y="104" /><rect fill="#ebedf0" height="12" rx="2" width="12" x="608" y="120" /><rect fill="#ebedf0" height="12" rx="2" width="12" x="608" y="136" /><rect fill="#ebedf0" height="12" rx="2" width="12" x="624" y="40" /><rect fill="#ebedf0" height="12" rx="2" width="12" x="624" y="56" /><rect fill="#ebedf0" height="12" rx="2" width="12" x="624" y="72" /><rect fill="#ebedf0" height="12" rx="2" width="12" x="624" y="88" /><rect fill="#ebedf0" height="12" rx="2" width="12" x="624" y="104" /><rect fill="#ebedf0" height="12" rx="2" width="12" x="624" y="120" /><rect fill="#ebedf0" height="12" rx="2" width="12" x="624" y="136" /><rect fill="#ebedf0" height="12" rx="2" width="12" x="640" y="40" /><rect fill="#ebedf0" height="12" rx="2" width="12" x="640" y="56" /><rect fill="#ebedf0" height="12" rx="2" width="12" x="640" y="72" /><rect fill="#ebedf0" height="12" rx="2" width="12" x="640" y="88" /><rect fill="#ebedf0" height="12" rx="2" width="12" x="640" y="104" /><rect fill="#ebedf0" height="12" rx="2" width="12" x="640" y="120" /><rect fill="#ebedf0" height="12" rx="2" width="12" x="640" y="136" /><rect fill="#ebedf0" height="12" rx="2" width="12" x="656" y="40" /><rect fill="#ebedf0" height="12" rx="2" width="12" x="656" y="56" /><rect fill="#ebedf0" height="12" rx="2" width="12" x="656" y="72" /><rect fill="#ebedf0" height="12" rx="2" width="12" x="656" y="88" /><rect fill="#ebedf0" height="12" rx="2" width="12" x="656" y="104" /><rect fill="#ebedf0" height="12" rx="2" width="12" x="656" y="120" /><rect fill="#ebedf0" height="12" rx="2" width="12" x="656" y="136" /><rect fill="#ebedf0" height="12" rx="2" width="12" x="672" y="40" /><rect fill="#ebedf0" height="12" rx="2" width="12" x="672" y="56" /><rect fill="#ebedf0" height="12" rx="2" width="12" x="672" y="72" /><rect fill="#ebedf0" height="12" rx="2" width="12" x="672" y="88" /><rect fill="#ebedf0" height="12" rx="2" width="12" x="672" y="104" /><rect fill="#ebedf0" height="12" rx="2" width="12" x="672" y="120" /><rect fill="#ebedf0" height="12" rx="2" width="12" x="672" y="136" /><rect fill="#ebedf0" height="12" rx="2" width="12" x="688" y="40" /><rect fill="#ebedf0" height="12" rx="2" width="12" x="688" y="56" /><rect fill="#ebedf0" height="12" rx="2" width="12" x="688" y="72" /><rect fill="#ebedf0" height="12" rx="2" width="12" x="688" y="88" /><rect fill="#ebedf0" height="12" rx="2" width="12" x="688" y="104" /><rect fill="#ebedf0" height="12" rx="2" width="12" x="688" y="120" /><rect fill="#ebedf0" height="12" rx="2" width="12" x="688" y="136" /><rect fill="#ebedf0" height="12" rx="2" width="12" x="704" y="40" /><rect fill="#ebedf0" height="12" rx="2" width="12" x="704" y="56" /><rect fill="#ebedf0" height="12" rx="2" width="12" x="704" y="72" /><rect fill="#ebedf0" height="12" rx="2" width="12" x="704" y="88" /><rect fill="#ebedf0" height="12" rx="2" width="12" x="704" y="104" /><rect fill="#ebedf0" height="12" rx="2" width="12" x="704" y="120" /><rect fill="#ebedf0" height="12" rx="2" width="12" x="704" y="136" /><rect fill="#ebedf0" height="12" rx="2" width="12" x="720" y="40" /><rect fill="#ebedf0" height="12" rx="2" width="12" x="720" y="56" /><rect fill="#ebedf0" height="12" rx="2" width="12" x="720" y="72" /><rect fill="#ebedf0" height="12" rx="2" width="12" x="720" y="88" /><rect fill="#ebedf0" height="12" rx="2" width="12" x="720" y="104" /><rect fill="#ebedf0" height="12" rx="2" width="12" x="720" y="120" /><rect fill="#ebedf0" height="12" rx="2" width="12" x="720" y="136" /><rect fill="#ebedf0" height="12" rx="2" width="12" x="736" y="40" /><rect fill="#ebedf0" height="12" rx="2" width="12" x="736" y="56" /><rect fill="#ebedf0" height="12" rx="2" width="12" x="736" y="72" /><rect fill="#ebedf0" height="12" rx="2" width="12" x="736" y="88" /><rect fill="#ebedf0" height="12" rx="2" width="12" x="736" y="104" /><rect fill="#ebedf0" height="12" rx="2" width="12" x="736" y="120" /><rect fill="#ebedf0" height="12" rx="2" width="12" x="736" y="136" /><rect fill="#ebedf0" height="12" rx="2" width="12" x="752" y="40" /><rect fill="#ebedf0" height="12" rx="2" width="12" x="752" y="56" /><rect fill="#ebedf0" height="12" rx="2" width="12" x="752" y="72" /><rect fill="#ebedf0" height="12" rx="2" width="12" x="752" y="88" /><rect fill="#ebedf0" height="12" rx="2" width="12" x="752" y="104" /><rect fill="#ebedf0" height="12" rx="2" width="12" x="752" y="120" /><rect fill="#ebedf0" height="12" rx="2" width="12" x="752" y="136" /><rect fill="#ebedf0" height="12" rx="2" width="12" x="768" y="40" /><rect fill="#ebedf0" height="12" rx="2" width="12" x="768" y="56" /><rect fill="#ebedf0" height="12" rx="2" width="12" x="768" y="72" /><rect fill="#ebedf0" height="12" rx="2" width="12" x="768" y="88" /><rect fill="#ebedf0" height="12" rx="2" width="12" x="768" y="104" /><rect fill="#ebedf0" height="12" rx="2" width="12" x="768" y="120" /><rect fill="#ebedf0" height="12" rx="2" width="12" x="768" y="136" /><rect fill="#ebedf0" height="12" rx="2" width="12" x="784" y="40" /><rect fill="#ebedf0" height="12" rx="2" width="12" x="784" y="56" /><rect fill="#ebedf0" height="12" rx="2" width="12" x="784" y="72" /><rect fill="#ebedf0" height="12" rx="2" width="12" x="784" y="88" /><rect fill="#ebedf0" height="12" rx="2" width="12" x="784" y="104" /><rect fill="#ebedf0" height="12" rx="2" width="12" x="784" y="120" /><rect fill="#ebedf0" height="12" rx="2" width="12" x="784" y="136" /><rect fill="#ebedf0" height="12" rx="2" width="12" x="800" y="40" /><rect fill="#ebedf0" height="12" rx="2" width="12" x="800" y="56" /><rect fill="#ebedf0" height="12" rx="2" width="12" x="800" y="72" /><rect fill="#ebedf0" height="12" rx="2" width="12" x="800" y="88" /><rect fill="#ebedf0" height="12" rx="2" width="12" x="800" y="104" /><rect fill="#ebedf0" height="12" rx="2" width="12" x="800" y="120" /><rect fill="#ebedf0" height="12" rx="2" width="12" x="800" y="136" /><rect fill="#ebedf0" height="12" rx="2" width="12" x="816" y="40" /><rect fill="#ebedf0" height="12" rx="2" width="12" x="816" y="56" /><rect fill="#ebedf0" height="12" rx="2" width="12" x="816" y="72" /><rect fill="#ebedf0" height="12" rx="2" width="12" x="816" y="88" /><rect fill="#ebedf0" height="12" rx="2" width="12" x="816" y="104" /><rect fill="#ebedf0" height="12" rx="2" width="12" x="816" y="120" /><rect fill="#ebedf0" height="12" rx="2" width="12" x="816" y="136" /><rect fill="#ebedf0" height="12" rx="2" width="12" x="832" y="40" /><rect fill="#ebedf0" height="12" rx="2" width="12" x="832" y="56" /><rect fill="#ebedf0" height="12" rx="2" width="12" x="832" y="72" /><rect fill="#ebedf0" height="12" rx="2" width="12" x="832" y="88" /></svg>